<svg width="129" height="57" viewBox="0 0 129 57" fill="none" xmlns="http://www.w3.org/2000/svg">
<path d="M40.4215 3.4V16H46.9015V14.56H41.9515V3.4H40.4215ZM49.2401 9.7C49.2401 8.752 49.4441 7.906 49.8521 7.162C50.2721 6.418 50.8421 5.83 51.5621 5.398C52.2821 4.966 53.0981 4.75 54.0101 4.75C54.9341 4.75 55.7501 4.966 56.4581 5.398C57.1781 5.83 57.7421 6.418 58.1501 7.162C58.5701 7.906 58.7801 8.752 58.7801 9.7C58.7801 10.648 58.5701 11.494 58.1501 12.238C57.7421 12.982 57.1781 13.57 56.4581 14.002C55.7501 14.434 54.9341 14.65 54.0101 14.65C53.0981 14.65 52.2821 14.434 51.5621 14.002C50.8421 13.57 50.2721 12.982 49.8521 12.238C49.4441 11.494 49.2401 10.648 49.2401 9.7ZM47.6201 9.7C47.6201 10.612 47.7761 11.464 48.0881 12.256C48.4121 13.048 48.8621 13.738 49.4381 14.326C50.0141 14.902 50.6921 15.358 51.4721 15.694C52.2521 16.018 53.0981 16.18 54.0101 16.18C54.9341 16.18 55.7801 16.018 56.5481 15.694C57.3281 15.358 58.0061 14.902 58.5821 14.326C59.1581 13.738 59.6021 13.048 59.9141 12.256C60.2381 11.464 60.4001 10.612 60.4001 9.7C60.4001 8.776 60.2381 7.924 59.9141 7.144C59.6021 6.352 59.1581 5.668 58.5821 5.092C58.0061 4.504 57.3281 4.048 56.5481 3.724C55.7801 3.388 54.9341 3.22 54.0101 3.22C53.0981 3.22 52.2521 3.388 51.4721 3.724C50.6921 4.048 50.0141 4.504 49.4381 5.092C48.8621 5.668 48.4121 6.352 48.0881 7.144C47.7761 7.924 47.6201 8.776 47.6201 9.7ZM68.7708 11.05H72.9648C72.8568 11.542 72.6828 12.004 72.4428 12.436C72.2148 12.868 71.9208 13.252 71.5608 13.588C71.2008 13.924 70.7688 14.188 70.2648 14.38C69.7728 14.56 69.2148 14.65 68.5908 14.65C67.7028 14.65 66.8988 14.44 66.1788 14.02C65.4588 13.6 64.8828 13.018 64.4508 12.274C64.0308 11.53 63.8208 10.672 63.8208 9.7C63.8208 8.716 64.0308 7.858 64.4508 7.126C64.8828 6.382 65.4588 5.8 66.1788 5.38C66.8988 4.96 67.7028 4.75 68.5908 4.75C69.5508 4.75 70.3848 4.942 71.0928 5.326C71.8008 5.698 72.3528 6.22 72.7488 6.892L73.8288 5.902C73.4688 5.314 73.0248 4.822 72.4968 4.426C71.9808 4.03 71.3928 3.73 70.7328 3.526C70.0848 3.322 69.3708 3.22 68.5908 3.22C67.6788 3.22 66.8328 3.382 66.0528 3.706C65.2728 4.018 64.5948 4.468 64.0188 5.056C63.4428 5.632 62.9928 6.316 62.6688 7.108C62.3568 7.9 62.2008 8.764 62.2008 9.7C62.2008 10.636 62.3568 11.5 62.6688 12.292C62.9928 13.084 63.4428 13.774 64.0188 14.362C64.5948 14.938 65.2728 15.388 66.0528 15.712C66.8328 16.024 67.6788 16.18 68.5908 16.18C69.5508 16.18 70.4028 16.006 71.1468 15.658C71.9028 15.298 72.5388 14.812 73.0548 14.2C73.5708 13.588 73.9608 12.892 74.2248 12.112C74.4888 11.32 74.6208 10.486 74.6208 9.61H68.7708V11.05ZM78.1378 9.7C78.1378 8.752 78.3418 7.906 78.7498 7.162C79.1698 6.418 79.7398 5.83 80.4598 5.398C81.1798 4.966 81.9958 4.75 82.9078 4.75C83.8318 4.75 84.6478 4.966 85.3558 5.398C86.0758 5.83 86.6398 6.418 87.0478 7.162C87.4678 7.906 87.6778 8.752 87.6778 9.7C87.6778 10.648 87.4678 11.494 87.0478 12.238C86.6398 12.982 86.0758 13.57 85.3558 14.002C84.6478 14.434 83.8318 14.65 82.9078 14.65C81.9958 14.65 81.1798 14.434 80.4598 14.002C79.7398 13.57 79.1698 12.982 78.7498 12.238C78.3418 11.494 78.1378 10.648 78.1378 9.7ZM76.5178 9.7C76.5178 10.612 76.6738 11.464 76.9858 12.256C77.3098 13.048 77.7598 13.738 78.3358 14.326C78.9118 14.902 79.5898 15.358 80.3698 15.694C81.1498 16.018 81.9958 16.18 82.9078 16.18C83.8318 16.18 84.6778 16.018 85.4458 15.694C86.2258 15.358 86.9038 14.902 87.4798 14.326C88.0558 13.738 88.4998 13.048 88.8118 12.256C89.1358 11.464 89.2978 10.612 89.2978 9.7C89.2978 8.776 89.1358 7.924 88.8118 7.144C88.4998 6.352 88.0558 5.668 87.4798 5.092C86.9038 4.504 86.2258 4.048 85.4458 3.724C84.6778 3.388 83.8318 3.22 82.9078 3.22C81.9958 3.22 81.1498 3.388 80.3698 3.724C79.5898 4.048 78.9118 4.504 78.3358 5.092C77.7598 5.668 77.3098 6.352 76.9858 7.144C76.6738 7.924 76.5178 8.776 76.5178 9.7Z" fill="#041549"/>
<path d="M4.40953 24.5445V37.1445H5.93953V24.5445H4.40953ZM5.25553 25.9845H7.82953C8.64553 25.9845 9.30553 26.1825 9.80953 26.5785C10.3255 26.9625 10.5835 27.5445 10.5835 28.3245C10.5835 29.0925 10.3255 29.6745 9.80953 30.0705C9.30553 30.4665 8.64553 30.6645 7.82953 30.6645H5.25553V32.1045H7.82953C8.64553 32.1045 9.37153 31.9545 10.0075 31.6545C10.6555 31.3425 11.1655 30.9045 11.5375 30.3405C11.9215 29.7645 12.1135 29.0925 12.1135 28.3245C12.1135 27.5445 11.9215 26.8725 11.5375 26.3085C11.1655 25.7445 10.6555 25.3125 10.0075 25.0125C9.37153 24.7005 8.64553 24.5445 7.82953 24.5445H5.25553V25.9845ZM14.6309 24.5445V37.1445H21.1109V35.7045H16.1609V24.5445H14.6309ZM24.8453 33.3645H31.5053L30.9653 31.9245H25.3853L24.8453 33.3645ZM28.1393 27.3885L30.2993 32.4645L30.4433 32.8245L32.2793 37.1445H33.9893L28.1393 23.9145L22.2893 37.1445H23.9993L25.8713 32.7165L26.0153 32.3925L28.1393 27.3885ZM36.2372 30.8445C36.2372 29.8605 36.4532 29.0025 36.8852 28.2705C37.3292 27.5265 37.9052 26.9445 38.6132 26.5245C39.3212 26.1045 40.0892 25.8945 40.9172 25.8945C41.5172 25.8945 42.0632 25.9725 42.5552 26.1285C43.0592 26.2845 43.5152 26.5065 43.9232 26.7945C44.3312 27.0705 44.6792 27.3945 44.9672 27.7665V25.7505C44.4392 25.2825 43.8632 24.9345 43.2392 24.7065C42.6152 24.4785 41.8412 24.3645 40.9172 24.3645C40.0412 24.3645 39.2192 24.5265 38.4512 24.8505C37.6952 25.1625 37.0292 25.6125 36.4532 26.2005C35.8772 26.7765 35.4272 27.4605 35.1032 28.2525C34.7792 29.0445 34.6172 29.9085 34.6172 30.8445C34.6172 31.7805 34.7792 32.6445 35.1032 33.4365C35.4272 34.2285 35.8772 34.9185 36.4532 35.5065C37.0292 36.0825 37.6952 36.5325 38.4512 36.8565C39.2192 37.1685 40.0412 37.3245 40.9172 37.3245C41.8412 37.3245 42.6152 37.2105 43.2392 36.9825C43.8632 36.7545 44.4392 36.4065 44.9672 35.9385V33.9225C44.6792 34.2945 44.3312 34.6245 43.9232 34.9125C43.5152 35.1885 43.0592 35.4045 42.5552 35.5605C42.0632 35.7165 41.5172 35.7945 40.9172 35.7945C40.0892 35.7945 39.3212 35.5845 38.6132 35.1645C37.9052 34.7445 37.3292 34.1625 36.8852 33.4185C36.4532 32.6745 36.2372 31.8165 36.2372 30.8445ZM48.8655 37.1445H55.2195V35.7045H48.8655V37.1445ZM48.8655 25.9845H55.2195V24.5445H48.8655V25.9845ZM48.8655 31.0245H54.8595V29.5845H48.8655V31.0245ZM48.0195 24.5445V37.1445H49.5495V24.5445H48.0195ZM59.1219 31.0245H67.7619V29.5845H59.1219V31.0245ZM66.7359 24.5445V37.1445H68.2659V24.5445H66.7359ZM58.2759 24.5445V37.1445H59.8059V24.5445H58.2759ZM72.4031 30.8445C72.4031 29.8965 72.6071 29.0505 73.0151 28.3065C73.4351 27.5625 74.0051 26.9745 74.7251 26.5425C75.4451 26.1105 76.2611 25.8945 77.1731 25.8945C78.0971 25.8945 78.9131 26.1105 79.6211 26.5425C80.3411 26.9745 80.9051 27.5625 81.3131 28.3065C81.7331 29.0505 81.9431 29.8965 81.9431 30.8445C81.9431 31.7925 81.7331 32.6385 81.3131 33.3825C80.9051 34.1265 80.3411 34.7145 79.6211 35.1465C78.9131 35.5785 78.0971 35.7945 77.1731 35.7945C76.2611 35.7945 75.4451 35.5785 74.7251 35.1465C74.0051 34.7145 73.4351 34.1265 73.0151 33.3825C72.6071 32.6385 72.4031 31.7925 72.4031 30.8445ZM70.7831 30.8445C70.7831 31.7565 70.9391 32.6085 71.2511 33.4005C71.5751 34.1925 72.0251 34.8825 72.6011 35.4705C73.1771 36.0465 73.8551 36.5025 74.6351 36.8385C75.4151 37.1625 76.2611 37.3245 77.1731 37.3245C78.0971 37.3245 78.9431 37.1625 79.7111 36.8385C80.4911 36.5025 81.1691 36.0465 81.7451 35.4705C82.3211 34.8825 82.7651 34.1925 83.0771 33.4005C83.4011 32.6085 83.5631 31.7565 83.5631 30.8445C83.5631 29.9205 83.4011 29.0685 83.0771 28.2885C82.7651 27.4965 82.3211 26.8125 81.7451 26.2365C81.1691 25.6485 80.4911 25.1925 79.7111 24.8685C78.9431 24.5325 78.0971 24.3645 77.1731 24.3645C76.2611 24.3645 75.4151 24.5325 74.6351 24.8685C73.8551 25.1925 73.1771 25.6485 72.6011 26.2365C72.0251 26.8125 71.5751 27.4965 71.2511 28.2885C70.9391 29.0685 70.7831 29.9205 70.7831 30.8445ZM86.0838 24.5445V37.1445H92.5638V35.7045H87.6138V24.5445H86.0838ZM94.5473 24.5445V37.1445H96.0773V24.5445H94.5473ZM98.3273 37.1445C99.5513 37.1445 100.637 36.8805 101.585 36.3525C102.533 35.8245 103.277 35.0925 103.817 34.1565C104.357 33.2085 104.627 32.1045 104.627 30.8445C104.627 29.5845 104.357 28.4865 103.817 27.5505C103.277 26.6025 102.533 25.8645 101.585 25.3365C100.637 24.8085 99.5513 24.5445 98.3273 24.5445H95.3933V26.0745H98.3273C99.0353 26.0745 99.6833 26.1885 100.271 26.4165C100.859 26.6325 101.363 26.9505 101.783 27.3705C102.203 27.7785 102.527 28.2765 102.755 28.8645C102.983 29.4525 103.097 30.1125 103.097 30.8445C103.097 31.5765 102.983 32.2365 102.755 32.8245C102.527 33.4125 102.203 33.9165 101.783 34.3365C101.363 34.7445 100.859 35.0625 100.271 35.2905C99.6833 35.5065 99.0353 35.6145 98.3273 35.6145H95.3933V37.1445H98.3273ZM107.988 37.1445H114.342V35.7045H107.988V37.1445ZM107.988 25.9845H114.342V24.5445H107.988V25.9845ZM107.988 31.0245H113.982V29.5845H107.988V31.0245ZM107.142 24.5445V37.1445H108.672V24.5445H107.142ZM119.648 30.9345L123.968 37.1445H125.858L121.358 30.9345H119.648ZM117.398 24.5445V37.1445H118.928V24.5445H117.398ZM118.244 25.8945H120.818C121.358 25.8945 121.832 25.9905 122.24 26.1825C122.66 26.3745 122.984 26.6505 123.212 27.0105C123.452 27.3705 123.572 27.8085 123.572 28.3245C123.572 28.8405 123.452 29.2785 123.212 29.6385C122.984 29.9985 122.66 30.2745 122.24 30.4665C121.832 30.6585 121.358 30.7545 120.818 30.7545H118.244V32.1045H120.818C121.634 32.1045 122.36 31.9545 122.996 31.6545C123.644 31.3425 124.154 30.9045 124.526 30.3405C124.91 29.7645 125.102 29.0925 125.102 28.3245C125.102 27.5445 124.91 26.8725 124.526 26.3085C124.154 25.7445 123.644 25.3125 122.996 25.0125C122.36 24.7005 121.634 24.5445 120.818 24.5445H118.244V25.8945Z" fill="#041549"/>
<line x1="12.8682" y1="19.75" x2="116.132" y2="19.75" stroke="#717BBC" stroke-width="0.5" stroke-linecap="round"/>
</svg>
