<svg width="80" height="80" viewBox="0 0 80 80" fill="none" xmlns="http://www.w3.org/2000/svg">
<circle opacity="0.1" cx="40" cy="40" r="40" fill="#6172F3"/>
<path d="M21.9997 37.9983H39.998V40.998H21.9997V37.9983ZM19 30.499H33.9985V33.4987H19V30.499Z" fill="#6172F3"/>
<path d="M60.8739 38.9075L56.3744 28.4085C56.2589 28.1386 56.0667 27.9086 55.8217 27.747C55.5766 27.5855 55.2895 27.4994 54.996 27.4996H50.4964V24.4999C50.4964 24.1021 50.3384 23.7206 50.0571 23.4393C49.7759 23.158 49.3944 23 48.9966 23H24.9989V25.9997H47.4967V44.8319C46.8133 45.2287 46.2152 45.757 45.7369 46.3861C45.2586 47.0152 44.9096 47.7329 44.71 48.4975H35.2849C34.9198 47.0837 34.0517 45.8515 32.8431 45.032C31.6346 44.2124 30.1686 43.8618 28.72 44.0458C27.2714 44.2298 25.9397 44.9358 24.9744 46.0314C24.0091 47.1271 23.4766 48.5372 23.4766 49.9974C23.4766 51.4576 24.0091 52.8677 24.9744 53.9634C25.9397 55.059 27.2714 55.765 28.72 55.949C30.1686 56.133 31.6346 55.7824 32.8431 54.9628C34.0517 54.1433 34.9198 52.9111 35.2849 51.4972H44.71C45.0363 52.7845 45.7824 53.9262 46.8304 54.7417C47.8785 55.5572 49.1685 56 50.4964 56C51.8244 56 53.1144 55.5572 54.1624 54.7417C55.2104 53.9262 55.9566 52.7845 56.2829 51.4972H59.4956C59.8933 51.4972 60.2748 51.3392 60.5561 51.0579C60.8374 50.7767 60.9954 50.3952 60.9954 49.9974V39.4984C60.9955 39.2952 60.9541 39.0941 60.8739 38.9075ZM29.4985 52.9971C28.9052 52.9971 28.3252 52.8212 27.8319 52.4916C27.3386 52.1619 26.9541 51.6935 26.7271 51.1453C26.5 50.5972 26.4406 49.9941 26.5564 49.4122C26.6721 48.8303 26.9578 48.2958 27.3773 47.8763C27.7969 47.4568 28.3314 47.1711 28.9132 47.0553C29.4951 46.9396 30.0983 46.999 30.6464 47.226C31.1945 47.4531 31.663 47.8375 31.9926 48.3308C32.3222 48.8241 32.4982 49.4041 32.4982 49.9974C32.4974 50.7927 32.1811 51.5552 31.6187 52.1176C31.0563 52.68 30.2938 52.9963 29.4985 52.9971ZM50.4964 30.4993H54.0061L57.2218 37.9986H50.4964V30.4993ZM50.4964 52.9971C49.9031 52.9971 49.3232 52.8212 48.8299 52.4916C48.3366 52.1619 47.9521 51.6935 47.7251 51.1453C47.498 50.5972 47.4386 49.9941 47.5544 49.4122C47.6701 48.8303 47.9558 48.2958 48.3753 47.8763C48.7948 47.4568 49.3293 47.1711 49.9112 47.0553C50.4931 46.9396 51.0962 46.999 51.6444 47.226C52.1925 47.4531 52.661 47.8375 52.9906 48.3308C53.3202 48.8241 53.4961 49.4041 53.4961 49.9974C53.4953 50.7927 53.179 51.5552 52.6167 52.1176C52.0543 52.68 51.2918 52.9963 50.4964 52.9971ZM57.9957 48.4975H56.2829C55.9525 47.2128 55.2051 46.074 54.1579 45.2597C53.1107 44.4454 51.8229 44.0017 50.4964 43.998V40.9983H57.9957V48.4975Z" fill="#6172F3"/>
</svg>
