<svg width="80" height="80" viewBox="0 0 80 80" fill="none" xmlns="http://www.w3.org/2000/svg">
<circle opacity="0.1" cx="40" cy="40" r="40" fill="#855FCE"/>
<path d="M49.2903 20H30.7548C29.9964 20 29.3818 20.6146 29.3818 21.373V28.1006C29.3818 28.859 29.9964 29.4736 30.7548 29.4736H49.2903C50.0486 29.4736 50.6632 28.859 50.6632 28.1006V21.373C50.6632 20.6146 50.0486 20 49.2903 20ZM47.9173 26.7277H32.1278V22.746H47.9172V26.7277H47.9173Z" fill="#855FCE"/>
<path d="M47.3222 28.1465H44.5762V34.4623H47.3222V28.1465Z" fill="#855FCE"/>
<path d="M35.4237 28.1465H32.6777V34.4623H35.4237V28.1465Z" fill="#855FCE"/>
<path d="M49.977 33.0889H30.0227C28.7609 33.0889 27.7344 34.1154 27.7344 35.3772V57.7113C27.7344 58.9731 28.7609 59.9996 30.0227 59.9996H49.977C51.2388 59.9996 52.2653 58.9731 52.2653 57.7113V35.3772C52.2653 34.1154 51.2388 33.0889 49.977 33.0889ZM49.5193 57.2536H30.4804V35.8349H49.5193V57.2536Z" fill="#855FCE"/>
<path d="M39.9999 40.2744C39.2416 40.2744 38.627 40.889 38.627 41.6474V51.4414C38.627 52.1998 39.2416 52.8144 39.9999 52.8144C40.7583 52.8144 41.3729 52.1998 41.3729 51.4414V41.6474C41.3729 40.889 40.7583 40.2744 39.9999 40.2744Z" fill="#855FCE"/>
<path d="M44.8975 45.1719H35.1034C34.3451 45.1719 33.7305 45.7865 33.7305 46.5448C33.7305 47.3032 34.3451 47.9178 35.1034 47.9178H44.8975C45.6563 47.9178 46.2705 47.3032 46.2705 46.5448C46.2705 45.7865 45.6558 45.1719 44.8975 45.1719Z" fill="#855FCE"/>
</svg>
