<svg width="80" height="80" viewBox="0 0 80 80" fill="none" xmlns="http://www.w3.org/2000/svg">
<circle opacity="0.1" cx="40" cy="40" r="40" fill="#16B364"/>
<path d="M56.4828 25.5684C54.4654 23.529 51.7401 22.4015 48.809 22.3932C45.792 22.3831 42.7686 23.5263 40.3462 25.5584C37.5911 23.1322 35.0989 21.9492 32.7521 21.9492C29.4746 21.9492 26.4337 23.2401 24.2104 25.5634C22.5393 27.2345 21.3943 29.4286 20.8979 31.9088C20.7494 32.6542 21.2323 33.379 21.9778 33.5281C22.7223 33.6759 23.4479 33.1938 23.5971 32.4483C23.9861 30.5029 24.8709 28.7951 26.1774 27.4882C27.8976 25.6909 30.2329 24.7015 32.7522 24.7015C34.5774 24.7015 36.7884 25.9313 39.3004 28.3327C39.582 28.6157 39.9522 28.7721 40.3426 28.7726C40.343 28.7726 40.344 28.7726 40.3444 28.7726C40.7338 28.7726 41.104 28.6171 41.3861 28.335C43.414 26.307 46.1067 25.1455 48.7765 25.1455C48.7852 25.1455 48.7934 25.1455 48.8017 25.1455C51.0265 25.1515 53.0063 25.9676 54.5108 27.4882C56.276 29.3318 57.248 31.7465 57.248 34.2887C57.248 36.8327 56.254 39.3075 54.5485 41.0515L40.3667 54.7606L29.1213 43.8955C28.575 43.3675 27.7039 43.3835 27.1754 43.9285C26.6475 44.4753 26.6626 45.3464 27.209 45.8744L39.4108 57.6634C39.6772 57.9212 40.0222 58.0501 40.3667 58.0501C40.7112 58.0501 41.0562 57.9212 41.3231 57.6638L56.4883 43.0033C58.7199 40.7221 59.9998 37.5459 59.9998 34.2886C59.9998 31.034 58.7562 27.9427 56.4828 25.5684Z" fill="#16B364"/>
<path d="M57.523 37.4546H46.422C46.0431 37.4546 45.6816 37.61 45.422 37.8853L41.2491 42.2977L36.4427 31.3949C36.2362 30.9266 35.7867 30.6114 35.2762 30.5771C34.7684 30.5445 34.278 30.7945 34.0105 31.2307L30.1931 37.4546H21.3762C20.616 37.4546 20 38.0706 20 38.8307C20 39.5909 20.616 40.2069 21.3762 40.2069H30.9629C31.4413 40.2069 31.8859 39.9583 32.1359 39.55L34.9836 34.9078L39.5666 45.3032C39.7524 45.7253 40.1373 46.0257 40.5914 46.1042C40.6694 46.1174 40.7478 46.1243 40.8258 46.1243C41.201 46.1243 41.5638 45.9711 41.8258 45.694L47.0148 40.2068H57.523C58.2831 40.2068 58.8992 39.5907 58.8992 38.8306C58.8991 38.0706 58.283 37.4546 57.523 37.4546Z" fill="#16B364"/>
</svg>
